<svg xmlns="http://www.w3.org/2000/svg" viewBox="-70 -70 812 740" width="812" height="740" role="img" aria-label="Musée GitHub, Rez-de-chaussée">
<style>.lbl{font-family:Archivo,Helvetica,Arial,sans-serif;font-weight:650;fill:#1B1E21}.cap{font-family:'IBM Plex Mono',Menlo,monospace;fill:#7C838A}.dim{font-family:'IBM Plex Mono',Menlo,monospace;fill:#4A5057}</style>
<defs>
<pattern id="closed" width="7" height="7" patternUnits="userSpaceOnUse" patternTransform="rotate(45)"><rect width="7" height="7" fill="#EEF0F2"/><line x1="0" y1="0" x2="0" y2="7" stroke="#C9CDD1" stroke-width="2"/></pattern>
<marker id="fleche" viewBox="0 0 10 10" refX="5" refY="5" markerWidth="6" markerHeight="6" orient="auto"><path d="M0,0 L10,5 L0,10 z" fill="#1B1E21"/></marker>
<marker id="fleche-r" viewBox="0 0 10 10" refX="5" refY="5" markerWidth="6" markerHeight="6" orient="auto"><path d="M0,0 L10,5 L0,10 z" fill="#CF3326"/></marker>
</defs>
<rect x="-70" y="-70" width="812" height="740" fill="#FBFBFA"/>
<rect x="-6.3" y="-6.3" width="684.6" height="8.4" fill="#1B1E21"/>
<rect x="-6.3" y="557.9" width="684.6" height="8.4" fill="#1B1E21"/>
<rect x="-6.3" y="-6.3" width="8.4" height="572.6" fill="#1B1E21"/>
<rect x="669.9" y="-6.3" width="8.4" height="572.6" fill="#1B1E21"/>
<rect x="-6.3" y="-6.3" width="236.6" height="194.6" fill="#1B1E21"/>
<rect x="-6.3" y="175.7" width="236.6" height="208.6" fill="#1B1E21"/>
<rect x="-6.3" y="371.7" width="236.6" height="194.6" fill="#1B1E21"/>
<rect x="217.7" y="-6.3" width="236.6" height="180.6" fill="#1B1E21"/>
<rect x="441.7" y="-6.3" width="236.6" height="194.6" fill="#1B1E21"/>
<rect x="441.7" y="175.7" width="236.6" height="208.6" fill="#1B1E21"/>
<rect x="441.7" y="371.7" width="236.6" height="194.6" fill="#1B1E21"/>
<rect x="217.7" y="161.7" width="236.6" height="404.6" fill="#1B1E21"/>
<rect x="2.1" y="2.1" width="219.8" height="177.8" fill="#FFFFFF"/>
<rect x="2.1" y="184.1" width="219.8" height="191.8" fill="#FFFFFF"/>
<rect x="2.1" y="380.1" width="219.8" height="177.8" fill="#FFFFFF"/>
<rect x="226.1" y="2.1" width="219.8" height="163.8" fill="#FFFFFF"/>
<rect x="450.1" y="2.1" width="219.8" height="177.8" fill="#FFFFFF"/>
<rect x="450.1" y="184.1" width="219.8" height="191.8" fill="#FFFFFF"/>
<rect x="450.1" y="380.1" width="219.8" height="177.8" fill="#FFFFFF"/>
<rect x="226.1" y="170.1" width="219.8" height="387.8" fill="#E4E8EB"/>
<rect x="224" y="168" width="224" height="49" fill="url(#closed)" stroke="#7C838A" stroke-width="0.8"/>
<rect x="224" y="217" width="42" height="63" fill="url(#closed)" stroke="#7C838A" stroke-width="0.8"/>
<rect x="406" y="217" width="42" height="63" fill="url(#closed)" stroke="#7C838A" stroke-width="0.8"/>
<rect x="224" y="168" width="224" height="49" fill="none" stroke="#4A5057" stroke-width="1" stroke-dasharray="6 4"/>
<text x="336" y="196.5" text-anchor="middle" font-size="11" class="cap">palier +2,40</text>
<rect x="294" y="217" width="84" height="63" fill="#EEF0F2" stroke="#4A5057" stroke-width="1" />
<line x1="294" x2="378" y1="221.5" y2="221.5" stroke="#7C838A" stroke-width="0.8"/>
<line x1="294" x2="378" y1="226" y2="226" stroke="#7C838A" stroke-width="0.8"/>
<line x1="294" x2="378" y1="230.5" y2="230.5" stroke="#7C838A" stroke-width="0.8"/>
<line x1="294" x2="378" y1="235" y2="235" stroke="#7C838A" stroke-width="0.8"/>
<line x1="294" x2="378" y1="239.5" y2="239.5" stroke="#7C838A" stroke-width="0.8"/>
<line x1="294" x2="378" y1="244" y2="244" stroke="#7C838A" stroke-width="0.8"/>
<line x1="294" x2="378" y1="248.5" y2="248.5" stroke="#7C838A" stroke-width="0.8"/>
<line x1="294" x2="378" y1="253" y2="253" stroke="#7C838A" stroke-width="0.8"/>
<line x1="294" x2="378" y1="257.5" y2="257.5" stroke="#7C838A" stroke-width="0.8"/>
<line x1="294" x2="378" y1="262" y2="262" stroke="#7C838A" stroke-width="0.8"/>
<line x1="294" x2="378" y1="266.5" y2="266.5" stroke="#7C838A" stroke-width="0.8"/>
<line x1="294" x2="378" y1="271" y2="271" stroke="#7C838A" stroke-width="0.8"/>
<line x1="294" x2="378" y1="275.5" y2="275.5" stroke="#7C838A" stroke-width="0.8"/>
<line x1="336" x2="336" y1="275.8" y2="222.6" stroke="#1B1E21" stroke-width="1.4" marker-end="url(#fleche)"/>
<circle cx="336" cy="275.8" r="3" fill="#1B1E21"/>
<rect x="224" y="217" width="42" height="63" fill="#EEF0F2" stroke="#4A5057" stroke-width="1" stroke-dasharray="4 3"/>
<line x1="224" x2="266" y1="221.5" y2="221.5" stroke="#7C838A" stroke-width="0.8"/>
<line x1="224" x2="266" y1="226" y2="226" stroke="#7C838A" stroke-width="0.8"/>
<line x1="224" x2="266" y1="230.5" y2="230.5" stroke="#7C838A" stroke-width="0.8"/>
<line x1="224" x2="266" y1="235" y2="235" stroke="#7C838A" stroke-width="0.8"/>
<line x1="224" x2="266" y1="239.5" y2="239.5" stroke="#7C838A" stroke-width="0.8"/>
<line x1="224" x2="266" y1="244" y2="244" stroke="#7C838A" stroke-width="0.8"/>
<line x1="224" x2="266" y1="248.5" y2="248.5" stroke="#7C838A" stroke-width="0.8"/>
<line x1="224" x2="266" y1="253" y2="253" stroke="#7C838A" stroke-width="0.8"/>
<line x1="224" x2="266" y1="257.5" y2="257.5" stroke="#7C838A" stroke-width="0.8"/>
<line x1="224" x2="266" y1="262" y2="262" stroke="#7C838A" stroke-width="0.8"/>
<line x1="224" x2="266" y1="266.5" y2="266.5" stroke="#7C838A" stroke-width="0.8"/>
<line x1="224" x2="266" y1="271" y2="271" stroke="#7C838A" stroke-width="0.8"/>
<line x1="224" x2="266" y1="275.5" y2="275.5" stroke="#7C838A" stroke-width="0.8"/>
<line x1="245" x2="245" y1="221.2" y2="274.4" stroke="#1B1E21" stroke-width="1.4" marker-end="url(#fleche)"/>
<circle cx="245" cy="221.2" r="3" fill="#1B1E21"/>
<rect x="406" y="217" width="42" height="63" fill="#EEF0F2" stroke="#4A5057" stroke-width="1" stroke-dasharray="4 3"/>
<line x1="406" x2="448" y1="221.5" y2="221.5" stroke="#7C838A" stroke-width="0.8"/>
<line x1="406" x2="448" y1="226" y2="226" stroke="#7C838A" stroke-width="0.8"/>
<line x1="406" x2="448" y1="230.5" y2="230.5" stroke="#7C838A" stroke-width="0.8"/>
<line x1="406" x2="448" y1="235" y2="235" stroke="#7C838A" stroke-width="0.8"/>
<line x1="406" x2="448" y1="239.5" y2="239.5" stroke="#7C838A" stroke-width="0.8"/>
<line x1="406" x2="448" y1="244" y2="244" stroke="#7C838A" stroke-width="0.8"/>
<line x1="406" x2="448" y1="248.5" y2="248.5" stroke="#7C838A" stroke-width="0.8"/>
<line x1="406" x2="448" y1="253" y2="253" stroke="#7C838A" stroke-width="0.8"/>
<line x1="406" x2="448" y1="257.5" y2="257.5" stroke="#7C838A" stroke-width="0.8"/>
<line x1="406" x2="448" y1="262" y2="262" stroke="#7C838A" stroke-width="0.8"/>
<line x1="406" x2="448" y1="266.5" y2="266.5" stroke="#7C838A" stroke-width="0.8"/>
<line x1="406" x2="448" y1="271" y2="271" stroke="#7C838A" stroke-width="0.8"/>
<line x1="406" x2="448" y1="275.5" y2="275.5" stroke="#7C838A" stroke-width="0.8"/>
<line x1="427" x2="427" y1="221.2" y2="274.4" stroke="#1B1E21" stroke-width="1.4" marker-end="url(#fleche)"/>
<circle cx="427" cy="221.2" r="3" fill="#1B1E21"/>
<line x1="266" y1="217" x2="294" y2="217" stroke="#1B1E21" stroke-width="2.4"/>
<line x1="378" y1="217" x2="406" y2="217" stroke="#1B1E21" stroke-width="2.4"/>
<line x1="294" y1="217" x2="294" y2="280" stroke="#1B1E21" stroke-width="2.4"/>
<line x1="378" y1="217" x2="378" y2="280" stroke="#1B1E21" stroke-width="2.4"/>
<line x1="266" y1="217" x2="266" y2="280" stroke="#1B1E21" stroke-width="2.4"/>
<line x1="406" y1="217" x2="406" y2="280" stroke="#1B1E21" stroke-width="2.4"/>
<rect x="313.6" y="557.6" width="44.8" height="9" fill="#E4E8EB"/>
<path d="M336,594L336,572" stroke="#CF3326" stroke-width="2" marker-end="url(#fleche-r)"/>
<text x="346" y="590" font-size="11" class="cap" fill="#CF3326">ENTRÉE</text>
<rect x="221.6" y="319.2" width="4.8" height="33.6" fill="#E4E8EB"/>
<rect x="221.6" y="459.2" width="4.8" height="33.6" fill="#E4E8EB"/>
<rect x="445.6" y="319.2" width="4.8" height="33.6" fill="#E4E8EB"/>
<rect x="445.6" y="459.2" width="4.8" height="33.6" fill="#E4E8EB"/>
<rect x="98" y="179.6" width="28" height="4.8" fill="#FFFFFF"/>
<rect x="98" y="375.6" width="28" height="4.8" fill="#FFFFFF"/>
<rect x="546" y="179.6" width="28" height="4.8" fill="#FFFFFF"/>
<rect x="546" y="375.6" width="28" height="4.8" fill="#FFFFFF"/>
<rect x="221.6" y="70" width="4.8" height="28" fill="#FFFFFF"/>
<rect x="445.6" y="70" width="4.8" height="28" fill="#FFFFFF"/>
<text x="112" y="106.8" text-anchor="middle" font-size="15" class="lbl" stroke="#FFFFFF" stroke-width="5" paint-order="stroke" stroke-linejoin="round">Blazor</text>
<text x="112" y="122.8" text-anchor="middle" font-size="10.5" class="cap" stroke="#FFFFFF" stroke-width="5" paint-order="stroke" stroke-linejoin="round">16 × 13 m</text>
<text x="112" y="136.8" text-anchor="middle" font-size="10.5" class="cap" stroke="#FFFFFF" stroke-width="5" paint-order="stroke" stroke-linejoin="round">16 œuvres</text>
<text x="112" y="297.5" text-anchor="middle" font-size="15" class="lbl" stroke="#FFFFFF" stroke-width="5" paint-order="stroke" stroke-linejoin="round">Librairies .NET</text>
<text x="112" y="313.5" text-anchor="middle" font-size="10.5" class="cap" stroke="#FFFFFF" stroke-width="5" paint-order="stroke" stroke-linejoin="round">16 × 14 m</text>
<text x="112" y="327.5" text-anchor="middle" font-size="10.5" class="cap" stroke="#FFFFFF" stroke-width="5" paint-order="stroke" stroke-linejoin="round">16 œuvres</text>
<text x="112" y="484.8" text-anchor="middle" font-size="15" class="lbl" stroke="#FFFFFF" stroke-width="5" paint-order="stroke" stroke-linejoin="round">Claude Code</text>
<text x="112" y="500.8" text-anchor="middle" font-size="10.5" class="cap" stroke="#FFFFFF" stroke-width="5" paint-order="stroke" stroke-linejoin="round">16 × 13 m</text>
<text x="112" y="514.8" text-anchor="middle" font-size="10.5" class="cap" stroke="#FFFFFF" stroke-width="5" paint-order="stroke" stroke-linejoin="round">16 œuvres</text>
<text x="336" y="98.2" text-anchor="middle" font-size="15" class="lbl" stroke="#FFFFFF" stroke-width="5" paint-order="stroke" stroke-linejoin="round">Jeux</text>
<text x="336" y="114.2" text-anchor="middle" font-size="10.5" class="cap" stroke="#FFFFFF" stroke-width="5" paint-order="stroke" stroke-linejoin="round">16 × 12 m</text>
<text x="336" y="128.2" text-anchor="middle" font-size="10.5" class="cap" stroke="#FFFFFF" stroke-width="5" paint-order="stroke" stroke-linejoin="round">16 œuvres</text>
<text x="560" y="106.8" text-anchor="middle" font-size="15" class="lbl" stroke="#FFFFFF" stroke-width="5" paint-order="stroke" stroke-linejoin="round">Trading &amp; finance</text>
<text x="560" y="122.8" text-anchor="middle" font-size="10.5" class="cap" stroke="#FFFFFF" stroke-width="5" paint-order="stroke" stroke-linejoin="round">16 × 13 m</text>
<text x="560" y="136.8" text-anchor="middle" font-size="10.5" class="cap" stroke="#FFFFFF" stroke-width="5" paint-order="stroke" stroke-linejoin="round">16 œuvres</text>
<text x="560" y="297.5" text-anchor="middle" font-size="15" class="lbl" stroke="#FFFFFF" stroke-width="5" paint-order="stroke" stroke-linejoin="round">Musique &amp; audio</text>
<text x="560" y="313.5" text-anchor="middle" font-size="10.5" class="cap" stroke="#FFFFFF" stroke-width="5" paint-order="stroke" stroke-linejoin="round">16 × 14 m</text>
<text x="560" y="327.5" text-anchor="middle" font-size="10.5" class="cap" stroke="#FFFFFF" stroke-width="5" paint-order="stroke" stroke-linejoin="round">16 œuvres</text>
<text x="560" y="484.8" text-anchor="middle" font-size="15" class="lbl" stroke="#FFFFFF" stroke-width="5" paint-order="stroke" stroke-linejoin="round">Aspire</text>
<text x="560" y="500.8" text-anchor="middle" font-size="10.5" class="cap" stroke="#FFFFFF" stroke-width="5" paint-order="stroke" stroke-linejoin="round">16 × 13 m</text>
<text x="560" y="514.8" text-anchor="middle" font-size="10.5" class="cap" stroke="#FFFFFF" stroke-width="5" paint-order="stroke" stroke-linejoin="round">16 œuvres</text>
<text x="336" y="473.8" text-anchor="middle" font-size="15" class="lbl" stroke="#E4E8EB" stroke-width="5" paint-order="stroke" stroke-linejoin="round">Hall</text>
<text x="336" y="488.8" text-anchor="middle" font-size="10.5" class="cap" stroke="#E4E8EB" stroke-width="5" paint-order="stroke" stroke-linejoin="round">16 × 28 m · double hauteur</text>
<g stroke="#7C838A" stroke-width="1">
<line x1="0" x2="672" y1="624" y2="624"/>
<line x1="0" x2="0" y1="619" y2="629"/>
<line x1="672" x2="672" y1="619" y2="629"/>
<line y1="0" y2="560" x1="-40" x2="-40"/>
<line y1="0" y2="0" x1="-45" x2="-35"/>
<line y1="560" y2="560" x1="-45" x2="-35"/>
</g>
<text x="336" y="618" text-anchor="middle" font-size="11" class="dim">48,00 m</text>
<text x="-46" y="280" text-anchor="middle" font-size="11" class="dim" transform="rotate(-90 -46 280)">40,00 m</text>
<g transform="translate(532,-26)">
<rect x="0" y="0" width="70" height="6" fill="#1B1E21" stroke="#1B1E21"/>
<rect x="70" y="0" width="70" height="6" fill="#FBFBFA" stroke="#1B1E21"/>
<text x="0" y="-5" font-size="10" class="dim">0</text>
<text x="140" y="-5" font-size="10" text-anchor="end" class="dim">10 m</text>
</g>
<g transform="translate(-40,-30)"><path d="M0,-12 L7,9 L0,5 L-7,9 z" fill="#1B1E21"/><text x="0" y="-16" text-anchor="middle" font-size="11" class="dim">N</text></g>
<text x="0" y="-30" font-size="15" class="lbl">REZ-DE-CHAUSSÉE · +0,00</text>
</svg>
