<svg xmlns="http://www.w3.org/2000/svg" viewBox="-70 -70 812 740" width="812" height="740" role="img" aria-label="Musée GitHub, Rez-de-chaussée">
<style>.lbl{font-family:Archivo,Helvetica,Arial,sans-serif;font-weight:650;fill:#1B1E21}.cap{font-family:'IBM Plex Mono',Menlo,monospace;fill:#7C838A}.dim{font-family:'IBM Plex Mono',Menlo,monospace;fill:#4A5057}</style>
<defs>
<pattern id="closed" width="7" height="7" patternUnits="userSpaceOnUse" patternTransform="rotate(45)"><rect width="7" height="7" fill="#EEF0F2"/><line x1="0" y1="0" x2="0" y2="7" stroke="#C9CDD1" stroke-width="2"/></pattern>
<marker id="fleche" viewBox="0 0 10 10" refX="5" refY="5" markerWidth="6" markerHeight="6" orient="auto"><path d="M0,0 L10,5 L0,10 z" fill="#1B1E21"/></marker>
<marker id="fleche-r" viewBox="0 0 10 10" refX="5" refY="5" markerWidth="6" markerHeight="6" orient="auto"><path d="M0,0 L10,5 L0,10 z" fill="#CF3326"/></marker>
</defs>
<rect x="-70" y="-70" width="812" height="740" fill="#FBFBFA"/>
<rect x="-6.3" y="-6.3" width="684.6" height="8.4" fill="#1B1E21"/>
<rect x="-6.3" y="557.9" width="684.6" height="8.4" fill="#1B1E21"/>
<rect x="-6.3" y="-6.3" width="8.4" height="572.6" fill="#1B1E21"/>
<rect x="669.9" y="-6.3" width="8.4" height="572.6" fill="#1B1E21"/>
<rect x="-6.3" y="-6.3" width="236.6" height="194.6" fill="#1B1E21"/>
<rect x="-6.3" y="175.7" width="236.6" height="208.6" fill="#1B1E21"/>
<rect x="-6.3" y="371.7" width="236.6" height="194.6" fill="#1B1E21"/>
<rect x="217.7" y="-6.3" width="236.6" height="180.6" fill="#1B1E21"/>
<rect x="441.7" y="-6.3" width="236.6" height="194.6" fill="#1B1E21"/>
<rect x="441.7" y="175.7" width="236.6" height="208.6" fill="#1B1E21"/>
<rect x="441.7" y="371.7" width="236.6" height="194.6" fill="#1B1E21"/>
<rect x="217.7" y="161.7" width="236.6" height="404.6" fill="#1B1E21"/>
<rect x="2.1" y="2.1" width="219.8" height="177.8" fill="#FFFFFF"/>
<rect x="2.1" y="184.1" width="219.8" height="191.8" fill="#FFFFFF"/>
<rect x="2.1" y="380.1" width="219.8" height="177.8" fill="#FFFFFF"/>
<rect x="226.1" y="2.1" width="219.8" height="163.8" fill="#FFFFFF"/>
<rect x="450.1" y="2.1" width="219.8" height="177.8" fill="#FFFFFF"/>
<rect x="450.1" y="184.1" width="219.8" height="191.8" fill="#FFFFFF"/>
<rect x="450.1" y="380.1" width="219.8" height="177.8" fill="#FFFFFF"/>
<rect x="226.1" y="170.1" width="219.8" height="387.8" fill="#E4E8EB"/>
<rect x="224" y="168" width="224" height="49" fill="url(#closed)" stroke="#7C838A" stroke-width="0.8"/>
<rect x="224" y="217" width="42" height="63" fill="url(#closed)" stroke="#7C838A" stroke-width="0.8"/>
<rect x="406" y="217" width="42" height="63" fill="url(#closed)" stroke="#7C838A" stroke-width="0.8"/>
<rect x="224" y="566.3" width="14" height="18.9" fill="url(#closed)" stroke="#7C838A" stroke-width="0.8"/>
<rect x="434" y="566.3" width="14" height="18.9" fill="url(#closed)" stroke="#7C838A" stroke-width="0.8"/>
<rect x="262.5" y="566.3" width="11.2" height="18.9" fill="url(#closed)" stroke="#7C838A" stroke-width="0.8"/>
<rect x="298.2" y="566.3" width="11.2" height="18.9" fill="url(#closed)" stroke="#7C838A" stroke-width="0.8"/>
<rect x="362.6" y="566.3" width="11.2" height="18.9" fill="url(#closed)" stroke="#7C838A" stroke-width="0.8"/>
<rect x="398.3" y="566.3" width="11.2" height="18.9" fill="url(#closed)" stroke="#7C838A" stroke-width="0.8"/>
<rect x="313.7" y="536.2" width="1.4" height="21.7" fill="url(#closed)" stroke="#7C838A" stroke-width="0.8"/>
<rect x="356.9" y="536.2" width="1.4" height="21.7" fill="url(#closed)" stroke="#7C838A" stroke-width="0.8"/>
<rect x="882" y="742" width="56" height="14" fill="url(#closed)" stroke="#7C838A" stroke-width="0.8"/>
<rect x="854" y="756" width="70" height="14" fill="url(#closed)" stroke="#7C838A" stroke-width="0.8"/>
<rect x="840" y="770" width="70" height="14" fill="url(#closed)" stroke="#7C838A" stroke-width="0.8"/>
<rect x="574" y="784" width="56" height="14" fill="url(#closed)" stroke="#7C838A" stroke-width="0.8"/>
<rect x="826" y="784" width="56" height="14" fill="url(#closed)" stroke="#7C838A" stroke-width="0.8"/>
<rect x="532" y="798" width="238" height="14" fill="url(#closed)" stroke="#7C838A" stroke-width="0.8"/>
<rect x="812" y="798" width="42" height="14" fill="url(#closed)" stroke="#7C838A" stroke-width="0.8"/>
<rect x="518" y="812" width="266" height="14" fill="url(#closed)" stroke="#7C838A" stroke-width="0.8"/>
<rect x="812" y="812" width="28" height="14" fill="url(#closed)" stroke="#7C838A" stroke-width="0.8"/>
<rect x="504" y="826" width="322" height="14" fill="url(#closed)" stroke="#7C838A" stroke-width="0.8"/>
<rect x="490" y="840" width="336" height="14" fill="url(#closed)" stroke="#7C838A" stroke-width="0.8"/>
<rect x="476" y="854" width="336" height="14" fill="url(#closed)" stroke="#7C838A" stroke-width="0.8"/>
<rect x="476" y="868" width="336" height="14" fill="url(#closed)" stroke="#7C838A" stroke-width="0.8"/>
<rect x="462" y="882" width="336" height="14" fill="url(#closed)" stroke="#7C838A" stroke-width="0.8"/>
<rect x="476" y="896" width="322" height="14" fill="url(#closed)" stroke="#7C838A" stroke-width="0.8"/>
<rect x="476" y="910" width="308" height="14" fill="url(#closed)" stroke="#7C838A" stroke-width="0.8"/>
<rect x="476" y="924" width="294" height="14" fill="url(#closed)" stroke="#7C838A" stroke-width="0.8"/>
<rect x="476" y="938" width="294" height="14" fill="url(#closed)" stroke="#7C838A" stroke-width="0.8"/>
<rect x="476" y="952" width="280" height="14" fill="url(#closed)" stroke="#7C838A" stroke-width="0.8"/>
<rect x="476" y="966" width="280" height="14" fill="url(#closed)" stroke="#7C838A" stroke-width="0.8"/>
<rect x="476" y="980" width="294" height="14" fill="url(#closed)" stroke="#7C838A" stroke-width="0.8"/>
<rect x="476" y="994" width="280" height="14" fill="url(#closed)" stroke="#7C838A" stroke-width="0.8"/>
<rect x="490" y="1008" width="266" height="14" fill="url(#closed)" stroke="#7C838A" stroke-width="0.8"/>
<rect x="518" y="1022" width="28" height="14" fill="url(#closed)" stroke="#7C838A" stroke-width="0.8"/>
<rect x="602" y="1022" width="126" height="14" fill="url(#closed)" stroke="#7C838A" stroke-width="0.8"/>
<rect x="1162" y="28" width="14" height="14" fill="url(#closed)" stroke="#7C838A" stroke-width="0.8"/>
<rect x="1148" y="42" width="28" height="14" fill="url(#closed)" stroke="#7C838A" stroke-width="0.8"/>
<rect x="1148" y="56" width="14" height="14" fill="url(#closed)" stroke="#7C838A" stroke-width="0.8"/>
<rect x="1134" y="70" width="14" height="14" fill="url(#closed)" stroke="#7C838A" stroke-width="0.8"/>
<rect x="1120" y="84" width="28" height="14" fill="url(#closed)" stroke="#7C838A" stroke-width="0.8"/>
<rect x="1120" y="98" width="14" height="14" fill="url(#closed)" stroke="#7C838A" stroke-width="0.8"/>
<rect x="1106" y="112" width="28" height="14" fill="url(#closed)" stroke="#7C838A" stroke-width="0.8"/>
<rect x="1106" y="126" width="28" height="14" fill="url(#closed)" stroke="#7C838A" stroke-width="0.8"/>
<rect x="1092" y="140" width="28" height="14" fill="url(#closed)" stroke="#7C838A" stroke-width="0.8"/>
<rect x="1064" y="154" width="42" height="14" fill="url(#closed)" stroke="#7C838A" stroke-width="0.8"/>
<rect x="1064" y="168" width="42" height="14" fill="url(#closed)" stroke="#7C838A" stroke-width="0.8"/>
<rect x="1050" y="182" width="42" height="14" fill="url(#closed)" stroke="#7C838A" stroke-width="0.8"/>
<rect x="1050" y="196" width="28" height="14" fill="url(#closed)" stroke="#7C838A" stroke-width="0.8"/>
<rect x="1036" y="210" width="28" height="14" fill="url(#closed)" stroke="#7C838A" stroke-width="0.8"/>
<rect x="1036" y="224" width="28" height="14" fill="url(#closed)" stroke="#7C838A" stroke-width="0.8"/>
<rect x="1036" y="238" width="28" height="14" fill="url(#closed)" stroke="#7C838A" stroke-width="0.8"/>
<rect x="1036" y="252" width="28" height="14" fill="url(#closed)" stroke="#7C838A" stroke-width="0.8"/>
<rect x="1036" y="294" width="28" height="14" fill="url(#closed)" stroke="#7C838A" stroke-width="0.8"/>
<rect x="1036" y="308" width="28" height="14" fill="url(#closed)" stroke="#7C838A" stroke-width="0.8"/>
<rect x="1036" y="322" width="28" height="14" fill="url(#closed)" stroke="#7C838A" stroke-width="0.8"/>
<rect x="1050" y="336" width="14" height="14" fill="url(#closed)" stroke="#7C838A" stroke-width="0.8"/>
<rect x="1050" y="350" width="28" height="14" fill="url(#closed)" stroke="#7C838A" stroke-width="0.8"/>
<rect x="1064" y="364" width="28" height="14" fill="url(#closed)" stroke="#7C838A" stroke-width="0.8"/>
<rect x="1064" y="378" width="28" height="14" fill="url(#closed)" stroke="#7C838A" stroke-width="0.8"/>
<rect x="1064" y="392" width="28" height="14" fill="url(#closed)" stroke="#7C838A" stroke-width="0.8"/>
<rect x="1050" y="406" width="42" height="14" fill="url(#closed)" stroke="#7C838A" stroke-width="0.8"/>
<rect x="1050" y="420" width="42" height="14" fill="url(#closed)" stroke="#7C838A" stroke-width="0.8"/>
<rect x="1036" y="434" width="56" height="14" fill="url(#closed)" stroke="#7C838A" stroke-width="0.8"/>
<rect x="1022" y="448" width="56" height="14" fill="url(#closed)" stroke="#7C838A" stroke-width="0.8"/>
<rect x="1008" y="462" width="42" height="14" fill="url(#closed)" stroke="#7C838A" stroke-width="0.8"/>
<rect x="994" y="476" width="42" height="14" fill="url(#closed)" stroke="#7C838A" stroke-width="0.8"/>
<rect x="980" y="490" width="28" height="14" fill="url(#closed)" stroke="#7C838A" stroke-width="0.8"/>
<rect x="966" y="504" width="28" height="14" fill="url(#closed)" stroke="#7C838A" stroke-width="0.8"/>
<rect x="952" y="518" width="28" height="14" fill="url(#closed)" stroke="#7C838A" stroke-width="0.8"/>
<rect x="952" y="532" width="28" height="14" fill="url(#closed)" stroke="#7C838A" stroke-width="0.8"/>
<rect x="938" y="546" width="42" height="14" fill="url(#closed)" stroke="#7C838A" stroke-width="0.8"/>
<rect x="938" y="560" width="42" height="14" fill="url(#closed)" stroke="#7C838A" stroke-width="0.8"/>
<rect x="938" y="574" width="42" height="14" fill="url(#closed)" stroke="#7C838A" stroke-width="0.8"/>
<rect x="938" y="588" width="42" height="14" fill="url(#closed)" stroke="#7C838A" stroke-width="0.8"/>
<rect x="952" y="602" width="42" height="14" fill="url(#closed)" stroke="#7C838A" stroke-width="0.8"/>
<rect x="952" y="616" width="42" height="14" fill="url(#closed)" stroke="#7C838A" stroke-width="0.8"/>
<rect x="966" y="630" width="28" height="14" fill="url(#closed)" stroke="#7C838A" stroke-width="0.8"/>
<rect x="966" y="644" width="28" height="14" fill="url(#closed)" stroke="#7C838A" stroke-width="0.8"/>
<rect x="966" y="658" width="28" height="14" fill="url(#closed)" stroke="#7C838A" stroke-width="0.8"/>
<rect x="966" y="672" width="28" height="14" fill="url(#closed)" stroke="#7C838A" stroke-width="0.8"/>
<rect x="952" y="686" width="28" height="14" fill="url(#closed)" stroke="#7C838A" stroke-width="0.8"/>
<rect x="938" y="700" width="42" height="14" fill="url(#closed)" stroke="#7C838A" stroke-width="0.8"/>
<rect x="910" y="714" width="56" height="14" fill="url(#closed)" stroke="#7C838A" stroke-width="0.8"/>
<rect x="896" y="728" width="56" height="14" fill="url(#closed)" stroke="#7C838A" stroke-width="0.8"/>
<rect x="991.8" y="628.5" width="22.6" height="22.6" fill="url(#closed)" stroke="#7C838A" stroke-width="0.8"/>
<rect x="931.4" y="541.5" width="17.4" height="17.4" fill="url(#closed)" stroke="#7C838A" stroke-width="0.8"/>
<rect x="96.6" y="60.9" width="30.8" height="9.8" fill="url(#closed)" stroke="#7C838A" stroke-width="0.8"/>
<rect x="575.4" y="275.1" width="30.8" height="9.8" fill="url(#closed)" stroke="#7C838A" stroke-width="0.8"/>
<rect x="544.6" y="489.3" width="30.8" height="9.8" fill="url(#closed)" stroke="#7C838A" stroke-width="0.8"/>
<rect x="161" y="216.3" width="30.8" height="9.8" fill="url(#closed)" stroke="#7C838A" stroke-width="0.8"/>
<rect x="96.6" y="489.3" width="30.8" height="9.8" fill="url(#closed)" stroke="#7C838A" stroke-width="0.8"/>
<rect x="590.8" y="143.8" width="30.8" height="9.8" fill="url(#closed)" stroke="#7C838A" stroke-width="0.8"/>
<rect x="320.6" y="112.7" width="30.8" height="9.8" fill="url(#closed)" stroke="#7C838A" stroke-width="0.8"/>
<rect x="292.6" y="366.8" width="8.4" height="39.2" fill="url(#closed)" stroke="#7C838A" stroke-width="0.8"/>
<rect x="292.6" y="419.3" width="8.4" height="39.2" fill="url(#closed)" stroke="#7C838A" stroke-width="0.8"/>
<rect x="371" y="366.8" width="8.4" height="39.2" fill="url(#closed)" stroke="#7C838A" stroke-width="0.8"/>
<rect x="371" y="419.3" width="8.4" height="39.2" fill="url(#closed)" stroke="#7C838A" stroke-width="0.8"/>
<rect x="421.1" y="508.9" width="11.9" height="40.6" fill="url(#closed)" stroke="#7C838A" stroke-width="0.8"/>
<rect x="583.4" y="750.7" width="23.2" height="7.8" fill="url(#closed)" stroke="#7C838A" stroke-width="0.8"/>
<rect x="408.1" y="855.4" width="7" height="25.2" fill="url(#closed)" stroke="#7C838A" stroke-width="0.8"/>
<rect x="498.4" y="662.9" width="25.2" height="7" fill="url(#closed)" stroke="#7C838A" stroke-width="0.8"/>
<rect x="176.4" y="662.9" width="25.2" height="7" fill="url(#closed)" stroke="#7C838A" stroke-width="0.8"/>
<rect x="788.9" y="303.8" width="7" height="25.2" fill="url(#closed)" stroke="#7C838A" stroke-width="0.8"/>
<rect x="-123.9" y="303.8" width="7" height="25.2" fill="url(#closed)" stroke="#7C838A" stroke-width="0.8"/>
<rect x="359.8" y="-123.9" width="25.2" height="7" fill="url(#closed)" stroke="#7C838A" stroke-width="0.8"/>
<rect x="438.5" y="410" width="7" height="6" fill="url(#closed)" stroke="#7C838A" stroke-width="0.8"/>
<rect x="375.2" y="545.2" width="19.6" height="12" fill="url(#closed)" stroke="#7C838A" stroke-width="0.8"/>
<rect x="281.1" y="555.5" width="3.4" height="2" fill="url(#closed)" stroke="#7C838A" stroke-width="0.8"/>
<rect x="443.5" y="297.9" width="2" height="3.4" fill="url(#closed)" stroke="#7C838A" stroke-width="0.8"/>
<rect x="291.4" y="299.1" width="12.2" height="12.2" fill="url(#closed)" stroke="#7C838A" stroke-width="0.8"/>
<rect x="368.4" y="299.1" width="12.2" height="12.2" fill="url(#closed)" stroke="#7C838A" stroke-width="0.8"/>
<rect x="595" y="569.8" width="64.4" height="32.2" fill="url(#closed)" stroke="#7C838A" stroke-width="0.8"/>
<rect x="291" y="585.7" width="11.6" height="11.6" fill="url(#closed)" stroke="#7C838A" stroke-width="0.8"/>
<rect x="369.4" y="585.7" width="11.6" height="11.6" fill="url(#closed)" stroke="#7C838A" stroke-width="0.8"/>
<rect x="208.4" y="585.7" width="11.6" height="11.6" fill="url(#closed)" stroke="#7C838A" stroke-width="0.8"/>
<rect x="452" y="585.7" width="11.6" height="11.6" fill="url(#closed)" stroke="#7C838A" stroke-width="0.8"/>
<rect x="281.5" y="641.4" width="22.2" height="10.8" fill="url(#closed)" stroke="#7C838A" stroke-width="0.8"/>
<rect x="224" y="763" width="42" height="42" fill="url(#closed)" stroke="#7C838A" stroke-width="0.8"/>
<rect x="44.5" y="685.9" width="4" height="4" fill="url(#closed)" stroke="#7C838A" stroke-width="0.8"/>
<rect x="231.9" y="691.1" width="4.1" height="4.1" fill="url(#closed)" stroke="#7C838A" stroke-width="0.8"/>
<rect x="432.2" y="678.6" width="3.5" height="3.5" fill="url(#closed)" stroke="#7C838A" stroke-width="0.8"/>
<rect x="628.2" y="678.6" width="3.5" height="3.5" fill="url(#closed)" stroke="#7C838A" stroke-width="0.8"/>
<rect x="44.5" y="-130" width="4" height="4" fill="url(#closed)" stroke="#7C838A" stroke-width="0.8"/>
<rect x="231.9" y="-135.2" width="4.1" height="4.1" fill="url(#closed)" stroke="#7C838A" stroke-width="0.8"/>
<rect x="436" y="-135.2" width="4.1" height="4.1" fill="url(#closed)" stroke="#7C838A" stroke-width="0.8"/>
<rect x="623.5" y="-130" width="4" height="4" fill="url(#closed)" stroke="#7C838A" stroke-width="0.8"/>
<rect x="-129.3" y="31.1" width="4.1" height="4.1" fill="url(#closed)" stroke="#7C838A" stroke-width="0.8"/>
<rect x="-135.5" y="189.1" width="4.2" height="4.2" fill="url(#closed)" stroke="#7C838A" stroke-width="0.8"/>
<rect x="-135.5" y="366.7" width="4.2" height="4.2" fill="url(#closed)" stroke="#7C838A" stroke-width="0.8"/>
<rect x="-129.3" y="524.8" width="4.1" height="4.1" fill="url(#closed)" stroke="#7C838A" stroke-width="0.8"/>
<rect x="790.6" y="26.3" width="3.5" height="3.5" fill="url(#closed)" stroke="#7C838A" stroke-width="0.8"/>
<rect x="790.6" y="194.3" width="3.5" height="3.5" fill="url(#closed)" stroke="#7C838A" stroke-width="0.8"/>
<rect x="790.6" y="362.3" width="3.5" height="3.5" fill="url(#closed)" stroke="#7C838A" stroke-width="0.8"/>
<rect x="790.6" y="530.3" width="3.5" height="3.5" fill="url(#closed)" stroke="#7C838A" stroke-width="0.8"/>
<rect x="-94.7" y="-96.8" width="4.9" height="4.9" fill="url(#closed)" stroke="#7C838A" stroke-width="0.8"/>
<rect x="763.9" y="-94.7" width="4.9" height="4.9" fill="url(#closed)" stroke="#7C838A" stroke-width="0.8"/>
<rect x="761.8" y="651.9" width="4.9" height="4.9" fill="url(#closed)" stroke="#7C838A" stroke-width="0.8"/>
<rect x="-96.8" y="649.8" width="4.9" height="4.9" fill="url(#closed)" stroke="#7C838A" stroke-width="0.8"/>
<rect x="342.2" y="-343.3" width="4.8" height="4.8" fill="url(#closed)" stroke="#7C838A" stroke-width="0.8"/>
<rect x="320.9" y="-489" width="4.2" height="4.2" fill="url(#closed)" stroke="#7C838A" stroke-width="0.8"/>
<rect x="-313.9" y="320" width="4.8" height="4.8" fill="url(#closed)" stroke="#7C838A" stroke-width="0.8"/>
<rect x="-502.5" y="233.7" width="4.2" height="4.2" fill="url(#closed)" stroke="#7C838A" stroke-width="0.8"/>
<rect x="918.8" y="301.8" width="3.9" height="3.9" fill="url(#closed)" stroke="#7C838A" stroke-width="0.8"/>
<rect x="1137.2" y="245.5" width="4.3" height="4.3" fill="url(#closed)" stroke="#7C838A" stroke-width="0.8"/>
<rect x="297.8" y="796.3" width="3.5" height="3.5" fill="url(#closed)" stroke="#7C838A" stroke-width="0.8"/>
<rect x="370.7" y="796.3" width="3.5" height="3.5" fill="url(#closed)" stroke="#7C838A" stroke-width="0.8"/>
<rect x="297.8" y="950.3" width="3.5" height="3.5" fill="url(#closed)" stroke="#7C838A" stroke-width="0.8"/>
<rect x="370.7" y="950.3" width="3.5" height="3.5" fill="url(#closed)" stroke="#7C838A" stroke-width="0.8"/>
<rect x="297.8" y="1095.9" width="3.5" height="3.5" fill="url(#closed)" stroke="#7C838A" stroke-width="0.8"/>
<rect x="370.7" y="1095.9" width="3.5" height="3.5" fill="url(#closed)" stroke="#7C838A" stroke-width="0.8"/>
<rect x="510.8" y="56.3" width="112.4" height="5" fill="url(#closed)" stroke="#7C838A" stroke-width="0.8"/>
<rect x="620.2" y="58.9" width="5" height="56.4" fill="url(#closed)" stroke="#7C838A" stroke-width="0.8"/>
<rect x="67.5" y="230.8" width="5" height="98.4" fill="url(#closed)" stroke="#7C838A" stroke-width="0.8"/>
<rect x="260.8" y="41.3" width="24.4" height="12.6" fill="url(#closed)" stroke="#7C838A" stroke-width="0.8"/>
<rect x="323.8" y="41.3" width="24.4" height="12.6" fill="url(#closed)" stroke="#7C838A" stroke-width="0.8"/>
<rect x="386.8" y="41.3" width="24.4" height="12.6" fill="url(#closed)" stroke="#7C838A" stroke-width="0.8"/>
<rect x="14" y="784" width="168" height="2.1" fill="url(#closed)" stroke="#7C838A" stroke-width="0.8"/>
<rect x="14" y="879.9" width="168" height="2.1" fill="url(#closed)" stroke="#7C838A" stroke-width="0.8"/>
<rect x="14" y="784" width="2.1" height="98" fill="url(#closed)" stroke="#7C838A" stroke-width="0.8"/>
<rect x="179.9" y="784" width="2.1" height="37.8" fill="url(#closed)" stroke="#7C838A" stroke-width="0.8"/>
<rect x="179.9" y="844.2" width="2.1" height="37.8" fill="url(#closed)" stroke="#7C838A" stroke-width="0.8"/>
<rect x="81.2" y="826.7" width="33.6" height="12.6" fill="url(#closed)" stroke="#7C838A" stroke-width="0.8"/>
<rect x="1033.2" y="868" width="11.2" height="100.8" fill="url(#closed)" stroke="#7C838A" stroke-width="0.8"/>
<rect x="1033.2" y="1008" width="11.2" height="14" fill="url(#closed)" stroke="#7C838A" stroke-width="0.8"/>
<rect x="1195.6" y="868" width="11.2" height="154" fill="url(#closed)" stroke="#7C838A" stroke-width="0.8"/>
<rect x="1044.4" y="1013.6" width="151.2" height="11.2" fill="url(#closed)" stroke="#7C838A" stroke-width="0.8"/>
<rect x="1044.4" y="865.2" width="91" height="11.2" fill="url(#closed)" stroke="#7C838A" stroke-width="0.8"/>
<rect x="1174.6" y="865.2" width="21" height="11.2" fill="url(#closed)" stroke="#7C838A" stroke-width="0.8"/>
<rect x="1135.4" y="793.8" width="5.6" height="82.6" fill="url(#closed)" stroke="#7C838A" stroke-width="0.8"/>
<rect x="1169" y="793.8" width="5.6" height="82.6" fill="url(#closed)" stroke="#7C838A" stroke-width="0.8"/>
<rect x="961.8" y="968.8" width="82.6" height="5.6" fill="url(#closed)" stroke="#7C838A" stroke-width="0.8"/>
<rect x="961.8" y="1002.4" width="82.6" height="5.6" fill="url(#closed)" stroke="#7C838A" stroke-width="0.8"/>
<rect x="1121.5" y="936.7" width="2.5" height="2.5" fill="url(#closed)" stroke="#7C838A" stroke-width="0.8"/>
<rect x="1174.7" y="936.7" width="2.5" height="2.5" fill="url(#closed)" stroke="#7C838A" stroke-width="0.8"/>
<rect x="1121.5" y="989.9" width="2.5" height="2.5" fill="url(#closed)" stroke="#7C838A" stroke-width="0.8"/>
<rect x="1174.7" y="989.9" width="2.5" height="2.5" fill="url(#closed)" stroke="#7C838A" stroke-width="0.8"/>
<rect x="1124.1" y="983.6" width="50.7" height="6.3" fill="url(#closed)" stroke="#7C838A" stroke-width="0.8"/>
<rect x="1070.3" y="925.1" width="26.6" height="6.2" fill="url(#closed)" stroke="#7C838A" stroke-width="0.8"/>
<rect x="1185.8" y="879.9" width="7" height="7" fill="url(#closed)" stroke="#7C838A" stroke-width="0.8"/>
<rect x="1059.1" y="997.5" width="18.2" height="18.2" fill="url(#closed)" stroke="#7C838A" stroke-width="0.8"/>
<rect x="1124.6" y="324.8" width="2" height="462" fill="url(#closed)" stroke="#7C838A" stroke-width="0.8"/>
<rect x="1124.6" y="323.8" width="14.3" height="2" fill="url(#closed)" stroke="#7C838A" stroke-width="0.8"/>
<rect x="1171.1" y="323.8" width="60.9" height="2" fill="url(#closed)" stroke="#7C838A" stroke-width="0.8"/>
<rect x="1137.6" y="323.5" width="2.5" height="2.5" fill="url(#closed)" stroke="#7C838A" stroke-width="0.8"/>
<rect x="1169.8" y="323.5" width="2.5" height="2.5" fill="url(#closed)" stroke="#7C838A" stroke-width="0.8"/>
<rect x="-323.4" y="852.6" width="30.8" height="30.8" fill="url(#closed)" stroke="#7C838A" stroke-width="0.8"/>
<rect x="504.7" y="784.7" width="12.6" height="12.6" fill="url(#closed)" stroke="#7C838A" stroke-width="0.8"/>
<rect x="76.3" y="1000.3" width="15.4" height="15.4" fill="url(#closed)" stroke="#7C838A" stroke-width="0.8"/>
<rect x="-427.1" y="412.9" width="14.2" height="14.2" fill="url(#closed)" stroke="#7C838A" stroke-width="0.8"/>
<rect x="511" y="58.5" width="112" height="0.6" fill="#1B1E21" stroke="#1B1E21" stroke-width="2.5"/>
<rect x="622.4" y="59.1" width="0.6" height="56" fill="#1B1E21" stroke="#1B1E21" stroke-width="2.5"/>
<rect x="69.7" y="231" width="0.6" height="98" fill="#1B1E21" stroke="#1B1E21" stroke-width="2.5"/>
<rect x="224" y="168" width="224" height="49" fill="none" stroke="#4A5057" stroke-width="1" stroke-dasharray="6 4"/>
<text x="336" y="196.5" text-anchor="middle" font-size="11" class="cap">palier +2,40</text>
<rect x="294" y="217" width="84" height="63" fill="#EEF0F2" stroke="#4A5057" stroke-width="1" />
<line x1="294" x2="378" y1="221.5" y2="221.5" stroke="#7C838A" stroke-width="0.8"/>
<line x1="294" x2="378" y1="226" y2="226" stroke="#7C838A" stroke-width="0.8"/>
<line x1="294" x2="378" y1="230.5" y2="230.5" stroke="#7C838A" stroke-width="0.8"/>
<line x1="294" x2="378" y1="235" y2="235" stroke="#7C838A" stroke-width="0.8"/>
<line x1="294" x2="378" y1="239.5" y2="239.5" stroke="#7C838A" stroke-width="0.8"/>
<line x1="294" x2="378" y1="244" y2="244" stroke="#7C838A" stroke-width="0.8"/>
<line x1="294" x2="378" y1="248.5" y2="248.5" stroke="#7C838A" stroke-width="0.8"/>
<line x1="294" x2="378" y1="253" y2="253" stroke="#7C838A" stroke-width="0.8"/>
<line x1="294" x2="378" y1="257.5" y2="257.5" stroke="#7C838A" stroke-width="0.8"/>
<line x1="294" x2="378" y1="262" y2="262" stroke="#7C838A" stroke-width="0.8"/>
<line x1="294" x2="378" y1="266.5" y2="266.5" stroke="#7C838A" stroke-width="0.8"/>
<line x1="294" x2="378" y1="271" y2="271" stroke="#7C838A" stroke-width="0.8"/>
<line x1="294" x2="378" y1="275.5" y2="275.5" stroke="#7C838A" stroke-width="0.8"/>
<line x1="336" x2="336" y1="275.8" y2="222.6" stroke="#1B1E21" stroke-width="1.4" marker-end="url(#fleche)"/>
<circle cx="336" cy="275.8" r="3" fill="#1B1E21"/>
<rect x="224" y="217" width="42" height="63" fill="#EEF0F2" stroke="#4A5057" stroke-width="1" stroke-dasharray="4 3"/>
<line x1="224" x2="266" y1="221.5" y2="221.5" stroke="#7C838A" stroke-width="0.8"/>
<line x1="224" x2="266" y1="226" y2="226" stroke="#7C838A" stroke-width="0.8"/>
<line x1="224" x2="266" y1="230.5" y2="230.5" stroke="#7C838A" stroke-width="0.8"/>
<line x1="224" x2="266" y1="235" y2="235" stroke="#7C838A" stroke-width="0.8"/>
<line x1="224" x2="266" y1="239.5" y2="239.5" stroke="#7C838A" stroke-width="0.8"/>
<line x1="224" x2="266" y1="244" y2="244" stroke="#7C838A" stroke-width="0.8"/>
<line x1="224" x2="266" y1="248.5" y2="248.5" stroke="#7C838A" stroke-width="0.8"/>
<line x1="224" x2="266" y1="253" y2="253" stroke="#7C838A" stroke-width="0.8"/>
<line x1="224" x2="266" y1="257.5" y2="257.5" stroke="#7C838A" stroke-width="0.8"/>
<line x1="224" x2="266" y1="262" y2="262" stroke="#7C838A" stroke-width="0.8"/>
<line x1="224" x2="266" y1="266.5" y2="266.5" stroke="#7C838A" stroke-width="0.8"/>
<line x1="224" x2="266" y1="271" y2="271" stroke="#7C838A" stroke-width="0.8"/>
<line x1="224" x2="266" y1="275.5" y2="275.5" stroke="#7C838A" stroke-width="0.8"/>
<line x1="245" x2="245" y1="221.2" y2="274.4" stroke="#1B1E21" stroke-width="1.4" marker-end="url(#fleche)"/>
<circle cx="245" cy="221.2" r="3" fill="#1B1E21"/>
<rect x="406" y="217" width="42" height="63" fill="#EEF0F2" stroke="#4A5057" stroke-width="1" stroke-dasharray="4 3"/>
<line x1="406" x2="448" y1="221.5" y2="221.5" stroke="#7C838A" stroke-width="0.8"/>
<line x1="406" x2="448" y1="226" y2="226" stroke="#7C838A" stroke-width="0.8"/>
<line x1="406" x2="448" y1="230.5" y2="230.5" stroke="#7C838A" stroke-width="0.8"/>
<line x1="406" x2="448" y1="235" y2="235" stroke="#7C838A" stroke-width="0.8"/>
<line x1="406" x2="448" y1="239.5" y2="239.5" stroke="#7C838A" stroke-width="0.8"/>
<line x1="406" x2="448" y1="244" y2="244" stroke="#7C838A" stroke-width="0.8"/>
<line x1="406" x2="448" y1="248.5" y2="248.5" stroke="#7C838A" stroke-width="0.8"/>
<line x1="406" x2="448" y1="253" y2="253" stroke="#7C838A" stroke-width="0.8"/>
<line x1="406" x2="448" y1="257.5" y2="257.5" stroke="#7C838A" stroke-width="0.8"/>
<line x1="406" x2="448" y1="262" y2="262" stroke="#7C838A" stroke-width="0.8"/>
<line x1="406" x2="448" y1="266.5" y2="266.5" stroke="#7C838A" stroke-width="0.8"/>
<line x1="406" x2="448" y1="271" y2="271" stroke="#7C838A" stroke-width="0.8"/>
<line x1="406" x2="448" y1="275.5" y2="275.5" stroke="#7C838A" stroke-width="0.8"/>
<line x1="427" x2="427" y1="221.2" y2="274.4" stroke="#1B1E21" stroke-width="1.4" marker-end="url(#fleche)"/>
<circle cx="427" cy="221.2" r="3" fill="#1B1E21"/>
<line x1="266" y1="217" x2="294" y2="217" stroke="#1B1E21" stroke-width="2.4"/>
<line x1="378" y1="217" x2="406" y2="217" stroke="#1B1E21" stroke-width="2.4"/>
<line x1="294" y1="217" x2="294" y2="280" stroke="#1B1E21" stroke-width="2.4"/>
<line x1="378" y1="217" x2="378" y2="280" stroke="#1B1E21" stroke-width="2.4"/>
<line x1="266" y1="217" x2="266" y2="280" stroke="#1B1E21" stroke-width="2.4"/>
<line x1="406" y1="217" x2="406" y2="280" stroke="#1B1E21" stroke-width="2.4"/>
<rect x="313.6" y="557.6" width="44.8" height="9" fill="#E4E8EB"/>
<path d="M336,594L336,572" stroke="#CF3326" stroke-width="2" marker-end="url(#fleche-r)"/>
<text x="346" y="590" font-size="11" class="cap" fill="#CF3326">ENTRÉE</text>
<rect x="221.6" y="319.2" width="4.8" height="33.6" fill="#E4E8EB"/>
<rect x="221.6" y="459.2" width="4.8" height="33.6" fill="#E4E8EB"/>
<rect x="445.6" y="319.2" width="4.8" height="33.6" fill="#E4E8EB"/>
<rect x="445.6" y="459.2" width="4.8" height="33.6" fill="#E4E8EB"/>
<rect x="98" y="179.6" width="28" height="4.8" fill="#FFFFFF"/>
<rect x="98" y="375.6" width="28" height="4.8" fill="#FFFFFF"/>
<rect x="546" y="179.6" width="28" height="4.8" fill="#FFFFFF"/>
<rect x="546" y="375.6" width="28" height="4.8" fill="#FFFFFF"/>
<rect x="221.6" y="70" width="4.8" height="28" fill="#FFFFFF"/>
<rect x="445.6" y="70" width="4.8" height="28" fill="#FFFFFF"/>
<text x="112" y="106.8" text-anchor="middle" font-size="15" class="lbl" stroke="#FFFFFF" stroke-width="5" paint-order="stroke" stroke-linejoin="round">Blazor</text>
<text x="112" y="122.8" text-anchor="middle" font-size="10.5" class="cap" stroke="#FFFFFF" stroke-width="5" paint-order="stroke" stroke-linejoin="round">16 × 13 m</text>
<text x="112" y="136.8" text-anchor="middle" font-size="10.5" class="cap" stroke="#FFFFFF" stroke-width="5" paint-order="stroke" stroke-linejoin="round">14 œuvres</text>
<text x="112" y="297.5" text-anchor="middle" font-size="15" class="lbl" stroke="#FFFFFF" stroke-width="5" paint-order="stroke" stroke-linejoin="round">Librairies .NET</text>
<text x="112" y="313.5" text-anchor="middle" font-size="10.5" class="cap" stroke="#FFFFFF" stroke-width="5" paint-order="stroke" stroke-linejoin="round">16 × 14 m</text>
<text x="112" y="327.5" text-anchor="middle" font-size="10.5" class="cap" stroke="#FFFFFF" stroke-width="5" paint-order="stroke" stroke-linejoin="round">18 œuvres</text>
<text x="112" y="484.8" text-anchor="middle" font-size="15" class="lbl" stroke="#FFFFFF" stroke-width="5" paint-order="stroke" stroke-linejoin="round">Claude Code</text>
<text x="112" y="500.8" text-anchor="middle" font-size="10.5" class="cap" stroke="#FFFFFF" stroke-width="5" paint-order="stroke" stroke-linejoin="round">16 × 13 m</text>
<text x="112" y="514.8" text-anchor="middle" font-size="10.5" class="cap" stroke="#FFFFFF" stroke-width="5" paint-order="stroke" stroke-linejoin="round">14 œuvres</text>
<text x="336" y="98.2" text-anchor="middle" font-size="15" class="lbl" stroke="#FFFFFF" stroke-width="5" paint-order="stroke" stroke-linejoin="round">Jeux</text>
<text x="336" y="114.2" text-anchor="middle" font-size="10.5" class="cap" stroke="#FFFFFF" stroke-width="5" paint-order="stroke" stroke-linejoin="round">16 × 12 m</text>
<text x="336" y="128.2" text-anchor="middle" font-size="10.5" class="cap" stroke="#FFFFFF" stroke-width="5" paint-order="stroke" stroke-linejoin="round">13 œuvres</text>
<text x="560" y="106.8" text-anchor="middle" font-size="15" class="lbl" stroke="#FFFFFF" stroke-width="5" paint-order="stroke" stroke-linejoin="round">Trading &amp; finance</text>
<text x="560" y="122.8" text-anchor="middle" font-size="10.5" class="cap" stroke="#FFFFFF" stroke-width="5" paint-order="stroke" stroke-linejoin="round">16 × 13 m</text>
<text x="560" y="136.8" text-anchor="middle" font-size="10.5" class="cap" stroke="#FFFFFF" stroke-width="5" paint-order="stroke" stroke-linejoin="round">20 œuvres</text>
<text x="560" y="297.5" text-anchor="middle" font-size="15" class="lbl" stroke="#FFFFFF" stroke-width="5" paint-order="stroke" stroke-linejoin="round">Musique &amp; audio</text>
<text x="560" y="313.5" text-anchor="middle" font-size="10.5" class="cap" stroke="#FFFFFF" stroke-width="5" paint-order="stroke" stroke-linejoin="round">16 × 14 m</text>
<text x="560" y="327.5" text-anchor="middle" font-size="10.5" class="cap" stroke="#FFFFFF" stroke-width="5" paint-order="stroke" stroke-linejoin="round">14 œuvres</text>
<text x="560" y="484.8" text-anchor="middle" font-size="15" class="lbl" stroke="#FFFFFF" stroke-width="5" paint-order="stroke" stroke-linejoin="round">Aspire</text>
<text x="560" y="500.8" text-anchor="middle" font-size="10.5" class="cap" stroke="#FFFFFF" stroke-width="5" paint-order="stroke" stroke-linejoin="round">16 × 13 m</text>
<text x="560" y="514.8" text-anchor="middle" font-size="10.5" class="cap" stroke="#FFFFFF" stroke-width="5" paint-order="stroke" stroke-linejoin="round">14 œuvres</text>
<text x="336" y="473.8" text-anchor="middle" font-size="15" class="lbl" stroke="#E4E8EB" stroke-width="5" paint-order="stroke" stroke-linejoin="round">Hall</text>
<text x="336" y="488.8" text-anchor="middle" font-size="10.5" class="cap" stroke="#E4E8EB" stroke-width="5" paint-order="stroke" stroke-linejoin="round">16 × 28 m · double hauteur</text>
<g stroke="#7C838A" stroke-width="1">
<line x1="0" x2="672" y1="624" y2="624"/>
<line x1="0" x2="0" y1="619" y2="629"/>
<line x1="672" x2="672" y1="619" y2="629"/>
<line y1="0" y2="560" x1="-40" x2="-40"/>
<line y1="0" y2="0" x1="-45" x2="-35"/>
<line y1="560" y2="560" x1="-45" x2="-35"/>
</g>
<text x="336" y="618" text-anchor="middle" font-size="11" class="dim">48,00 m</text>
<text x="-46" y="280" text-anchor="middle" font-size="11" class="dim" transform="rotate(-90 -46 280)">40,00 m</text>
<g transform="translate(532,-26)">
<rect x="0" y="0" width="70" height="6" fill="#1B1E21" stroke="#1B1E21"/>
<rect x="70" y="0" width="70" height="6" fill="#FBFBFA" stroke="#1B1E21"/>
<text x="0" y="-5" font-size="10" class="dim">0</text>
<text x="140" y="-5" font-size="10" text-anchor="end" class="dim">10 m</text>
</g>
<g transform="translate(-40,-30)"><path d="M0,-12 L7,9 L0,5 L-7,9 z" fill="#1B1E21"/><text x="0" y="-16" text-anchor="middle" font-size="11" class="dim">N</text></g>
<text x="0" y="-30" font-size="15" class="lbl">REZ-DE-CHAUSSÉE · +0,00</text>
</svg>
